<svg width="1920" height="1750" viewBox="0 0 1920 1750" fill="none" xmlns="http://www.w3.org/2000/svg">
<path d="M101.912 227.172C85.2198 222.449 68.5275 220.052 52.2902 220.052C27.2163 220.052 6.29411 225.684 -9.92895 232.58C5.71115 176.307 43.2829 79.21 118.128 68.2754C125.059 67.2623 130.74 62.3365 132.631 55.7059L148.989 -1.79648C150.368 -6.65938 149.55 -11.8646 146.728 -16.0848C143.906 -20.3049 139.37 -23.1206 134.287 -23.8053C128.763 -24.5459 123.133 -24.9232 117.552 -24.9232C27.7139 -24.9232 -61.2569 67.2343 -98.8003 199.189C-120.839 276.605 -127.301 392.993 -73.0154 466.251C-42.6381 507.243 1.68027 529.133 58.7098 531.32C58.9444 531.327 59.1719 531.334 59.4065 531.334C129.773 531.334 192.17 484.759 211.151 418.083C222.49 378.223 217.364 336.42 196.705 300.346C176.266 264.678 142.605 238.68 101.912 227.172Z" fill="#FD096B" fill-opacity="0.05"/>
<path d="M542.396 300.353C521.957 264.678 488.296 238.68 447.603 227.172C430.911 222.449 414.218 220.052 397.988 220.052C372.914 220.052 351.985 225.684 335.762 232.58C351.402 176.307 388.974 79.21 463.826 68.2754C470.757 67.2623 476.43 62.3366 478.329 55.706L494.687 -1.79648C496.066 -6.65938 495.248 -11.8646 492.426 -16.0847C489.611 -20.3049 485.075 -23.1206 479.985 -23.8053C474.468 -24.5459 468.838 -24.9232 463.25 -24.9232C373.412 -24.9232 284.441 67.2344 246.891 199.19C224.859 276.605 218.397 392.993 272.69 466.265C303.06 507.25 347.385 529.147 404.408 531.327C404.642 531.334 404.87 531.341 405.112 531.341C475.471 531.341 537.875 484.766 556.856 418.09C568.181 378.23 563.048 336.42 542.396 300.353Z" fill="#FD096B" fill-opacity="0.05"/>
<path d="M1771.18 1576.17C1787.87 1580.89 1804.56 1583.29 1820.8 1583.29C1845.87 1583.29 1866.8 1577.66 1883.02 1570.76C1867.38 1627.03 1829.81 1724.13 1754.96 1735.07C1748.03 1736.08 1742.35 1741 1740.46 1747.64L1724.1 1805.14C1722.72 1810 1723.54 1815.21 1726.36 1819.43C1729.18 1823.65 1733.72 1826.46 1738.8 1827.15C1744.33 1827.89 1749.96 1828.26 1755.54 1828.26C1845.38 1828.26 1934.35 1736.11 1971.89 1604.15C1993.93 1526.74 2000.39 1410.35 1946.11 1337.09C1915.73 1296.1 1871.41 1274.21 1814.38 1272.02C1814.15 1272.01 1813.92 1272.01 1813.68 1272.01C1743.32 1272.01 1680.92 1318.58 1661.94 1385.26C1650.6 1425.12 1655.73 1466.92 1676.38 1503C1696.82 1538.66 1730.49 1564.66 1771.18 1576.17Z" fill="#FB9806" fill-opacity="0.05"/>
<path d="M1232.34 1502.99C1252.78 1538.66 1286.44 1564.66 1327.14 1576.17C1343.83 1580.89 1360.52 1583.29 1376.75 1583.29C1401.83 1583.29 1422.76 1577.66 1438.98 1570.76C1423.34 1627.03 1385.77 1724.13 1310.91 1735.07C1303.98 1736.08 1298.31 1741 1296.41 1747.64L1280.05 1805.14C1278.67 1810 1279.49 1815.21 1282.31 1819.43C1285.13 1823.65 1289.67 1826.46 1294.76 1827.15C1300.27 1827.89 1305.9 1828.26 1311.49 1828.26C1401.33 1828.26 1490.3 1736.11 1527.85 1604.15C1549.88 1526.74 1556.34 1410.35 1502.05 1337.08C1471.68 1296.09 1427.35 1274.19 1370.33 1272.01C1370.1 1272.01 1369.87 1272 1369.63 1272C1299.27 1272 1236.87 1318.57 1217.88 1385.25C1206.56 1425.11 1211.69 1466.92 1232.34 1502.99Z" fill="#FB9806" fill-opacity="0.05"/>
</svg>
