<svg width="1920" height="2558" viewBox="0 0 1920 2558" fill="none" xmlns="http://www.w3.org/2000/svg">
<path d="M1811.47 2472.51C1899.47 2738.77 2064.58 2649.79 2136.13 2572.02C2331.75 2162.7 2604.27 1321.54 2129.42 1231.51C1535.85 1118.97 1538.86 1791.44 1469.66 1986.85C1400.46 2182.26 1701.46 2139.7 1811.47 2472.51Z" fill="#971EAB"/>
<path d="M579.136 2573.48C479.82 2341.74 132.987 2265.27 -28.0141 2256C-106.252 2334.24 -295.962 2617.7 -428.901 3125.66C-595.076 3760.61 -677.193 4022.48 -594.429 4450.53C-511.665 4878.57 -331.913 5154.66 -262.727 5292.39C-193.542 5430.11 -28.0141 5361.57 248.081 5292.39C524.176 5223.2 427.187 5030.52 496.372 4671.66C565.558 4312.8 758.242 4464.1 841.653 4285C925.063 4105.89 1075.72 3663.63 1062.14 3428.91C1048.56 3194.2 883.035 3180.62 758.242 3125.66C633.45 3070.7 703.282 2863.15 579.136 2573.48Z" fill="#FB9806"/>
<path d="M167.623 1002.16C65.8293 1188.86 -587.68 949.419 -625.407 944.653C-610.915 694.438 -524.763 145.125 -296.099 -50.4007C-10.2688 -294.808 194.422 41.0462 329.163 85.6378C463.903 130.229 637.73 321.813 443.53 454.768C249.33 587.723 269.416 815.459 167.623 1002.16Z" fill="#FD096B"/>
<path d="M1433.63 -63.9118C1406.55 -304.722 2173.12 -508.619 2211.45 -528.844C2361.55 -285.845 2640.36 283.158 2554.79 615.173C2447.82 1030.19 2037.13 850.603 1882.2 897.099C1727.27 943.596 1439.74 878.468 1534.06 627.386C1628.38 376.305 1460.7 176.898 1433.63 -63.9118Z" fill="#FB9806"/>
</svg>
