<svg width="1938" height="3581" viewBox="0 0 1938 3581" fill="none" xmlns="http://www.w3.org/2000/svg">
<rect x="-63" y="-71" width="2064" height="3793" fill="white"/>
<path d="M1571.47 2377.95C1659.47 2644.2 1824.58 2555.23 1896.13 2477.46C2091.75 2068.13 2364.27 1226.97 1889.42 1136.94C1295.85 1024.41 1298.86 1696.87 1229.66 1892.28C1160.46 2087.69 1461.46 2045.13 1571.47 2377.95Z" fill="#FB9806"/>
<path d="M593.136 2744.48C493.82 2512.74 146.987 2436.27 -14.0141 2427C-92.2518 2505.24 -281.962 2788.7 -414.901 3296.66C-581.076 3931.61 -663.193 4193.48 -580.429 4621.53C-497.665 5049.57 -317.913 5325.66 -248.727 5463.39C-179.542 5601.11 -14.0141 5532.57 262.081 5463.39C538.176 5394.2 441.187 5201.52 510.372 4842.66C579.558 4483.8 772.242 4635.1 855.653 4456C939.063 4276.89 1089.72 3834.63 1076.14 3599.91C1062.56 3365.2 897.035 3351.62 772.242 3296.66C647.45 3241.7 717.282 3034.15 593.136 2744.48Z" fill="#FD096B"/>
<path d="M213.623 931.157C111.829 1117.86 -541.68 878.419 -579.407 873.653C-564.915 623.438 -478.763 74.1255 -250.099 -121.401C35.7312 -365.808 240.422 -29.9538 375.163 14.6378C509.903 59.2293 683.73 250.813 489.53 383.768C295.33 516.723 315.416 744.459 213.623 931.157Z" fill="#971EAB"/>
<path d="M1115.63 74.0882C1088.55 -166.722 1855.12 -370.619 1893.45 -390.844C2043.55 -147.845 2322.36 421.158 2236.79 753.173C2129.82 1168.19 1719.13 988.603 1564.2 1035.1C1409.27 1081.6 1121.74 1016.47 1216.06 765.386C1310.38 514.305 1142.7 314.898 1115.63 74.0882Z" fill="#FD096B"/>
</svg>
